<?xml version="1.0"?>
<svg width="180" height="64" viewBox="0 0 1594 564"
	xmlns="http://www.w3.org/2000/svg"
	xmlns:svg="http://www.w3.org/2000/svg" enable-background="new 0 0 1594 564" preserveAspectRatio="xMidYMid meet" version="1.1" xml:space="preserve">
	<g class="layer">
		<title>Printerp</title>
		<path d="m256.13,396.11c-20.38,4.82 -40.52,5.41 -60.77,2.43c-15.69,-2.31 -31.1,-5.72 -45.31,-13.12c-16.99,-8.84 -31.62,-20.8 -45.32,-34.06c-13,-12.59 -24.84,-26 -32.67,-42.53c-12.67,-26.77 -15.74,-55.03 -13.31,-84.21c1.35,-16.2 3.75,-32.27 11.37,-46.7c5.54,-10.51 12.42,-20.47 19.79,-29.83c15.44,-19.63 34.56,-34.92 57.27,-45.64c14.64,-6.91 30.14,-10.82 46.07,-12.11c26.48,-2.15 52.54,0.63 77.44,10.61c25.39,10.18 46.22,26.48 61.85,48.81c7.68,10.98 13.6,23.19 20.26,34.87c0.7,1.23 0.96,2.71 1.42,4.05c-5.89,2.21 -7.52,1.24 -10.8,-3.79c-6.97,-10.71 -13.58,-21.77 -21.66,-31.6c-13.9,-16.9 -31.82,-28.67 -52.34,-36.24c-7.78,-2.87 -15.89,-4.83 -23.79,-7.4c-4.43,-1.44 -6.42,1.44 -7.46,4.52c-1.15,3.4 1.87,4.55 4.58,5.2c18.8,4.56 36.25,12 51.86,23.66c20.1,15.02 32.91,34.97 40.21,58.66c2.02,6.57 5.45,13.04 3.12,20.32c-0.29,0.9 -0.74,1.76 -1.65,3.87c-1.43,-2.84 -2.61,-4.69 -3.34,-6.71c-5.98,-16.48 -12.83,-32.51 -23.52,-46.62c-20.22,-26.68 -47.5,-40.15 -80.37,-43.75c-19.21,-2.1 -37.78,-0.48 -55.95,6.22c-16.42,6.05 -29.82,15.99 -40.16,30.06c-13.53,18.43 -22.6,38.8 -25.56,61.56c-1.86,14.22 0.37,28.18 4.28,41.9c10.48,36.7 34.26,60.92 69.84,73.65c11.23,4.02 22.91,6.81 34.45,9.93c9.74,2.63 19.22,-0.02 28.5,-2.49c21.07,-5.61 39.13,-16.56 54.5,-31.97c10.01,-10.02 20,-20.07 29.98,-30.11c7.65,-7.7 9.73,-18.02 12.87,-27.79c1.47,-4.57 2.15,-9.4 3.35,-14.06c0.45,-1.75 1.06,-3.63 2.19,-4.96c0.93,-1.12 2.89,-2.28 4.08,-2.02c1.07,0.24 2.19,2.31 2.46,3.72c3.05,16.18 1.59,32 -3.73,47.59c-0.96,2.81 -0.82,6.15 -0.51,9.18c0.13,1.27 2.22,3.41 3.11,3.27c1.47,-0.24 3.15,-1.77 3.92,-3.2c1.07,-2 1.18,-4.49 2.1,-6.61c0.64,-1.47 1.72,-2.94 3,-3.88c1.19,-0.88 2.9,-1.05 4.37,-1.53c0.24,1.4 0.99,2.95 0.64,4.17c-2.67,9.26 -5.23,18.57 -8.46,27.63c-7.38,20.77 -23.54,34.28 -40.27,47.08c-18.44,14.1 -38.87,24.35 -61.93,29.97z" fill="#7FCDFF" id="svg_2" opacity="1" transform="matrix(1 0 0 1 0 0)"/>
		<path d="m614.92,242.74c4.84,-0.65 9.42,-0.72 13.68,-1.91c8.12,-2.25 12.63,-9.52 11.22,-17c-1.41,-7.54 -8.69,-12.95 -16.81,-12.76c-3.28,0.08 -6.76,0.29 -9.81,-0.64c-4.47,-1.38 -6.45,-5.15 -5.95,-9.81c0.45,-4.24 2.97,-7.3 7.15,-7.93c22.77,-3.45 41.4,10.16 44.65,28.19c2.42,13.47 -3.34,23.65 -13.38,31.84c-7.84,6.39 -7.92,6.24 -0.81,13.52c4.66,4.76 9.43,9.43 13.8,14.44c4.87,5.58 4.07,12.71 -1.8,15.07c-2.12,0.85 -5.97,0.54 -7.55,-0.88c-13.02,-11.65 -25.87,-23.5 -38.4,-35.67c-6.79,-6.59 -4.98,-13.56 4.01,-16.46z" fill="#1C9BD3" id="svg_3" opacity="1"/>
		<path d="m1321.82,197.15c15.22,9.18 21.99,26.98 15.79,41.17c-3.1,7.08 -8.71,12.04 -14.83,16.51c-5.08,3.7 -5.08,4.21 -0.67,8.64c5.88,5.9 11.81,11.74 17.65,17.67c3.84,3.9 3.92,9.33 0.32,12.82c-3.87,3.75 -9.34,3.72 -13.25,-0.14c-12.2,-12.05 -24.35,-24.14 -36.59,-36.16c-2.8,-2.75 -4.72,-5.62 -3.06,-9.7c1.65,-4.07 4.77,-5.75 9.05,-5.66c2.83,0.07 5.66,0.03 8.49,0c8.73,-0.09 14.6,-4.59 15.44,-11.81c1.04,-8.9 -3.91,-16.91 -12.04,-18.78c-3.52,-0.8 -7.26,-0.73 -10.9,-0.92c-6.26,-0.33 -9.9,-3.84 -9.8,-9.6c0.1,-5.8 3.96,-9.65 10.2,-8.83c8.02,1.05 15.91,3.06 24.2,4.79z" fill="#1B9BD3" id="svg_4" opacity="1" transform="matrix(1 0 0 1 0 0)"/>
		<path d="m848.97,263.03c-17.6,-17.05 -34.96,-33.84 -52.28,-50.67c-1.78,-1.73 -3.69,-3.47 -4.99,-5.54c-2.37,-3.8 -2.04,-7.76 1.07,-11.02c3.04,-3.19 6.85,-4.09 10.91,-1.92c1.59,0.85 3.04,2.06 4.35,3.32c28.06,27.04 56.1,54.11 84.11,81.21c1.54,1.48 3.05,3.16 4.02,5.04c2.05,3.98 1.41,7.9 -1.86,10.95c-3.24,3.03 -7.12,3.5 -11.04,1.18c-1.42,-0.83 -2.68,-1.98 -3.87,-3.13c-10.07,-9.71 -20.12,-19.45 -30.42,-29.42z" fill="#1C9BD3" id="svg_5" opacity="1" transform="matrix(1 0 0 1 0 0)"/>
		<path d="m505.82,251.81c-8.57,3.57 -16.66,7.46 -25.15,10.13c-5.85,1.84 -10.89,-0.99 -13.66,-5.73c-3.22,-5.5 -1.01,-11.38 5.22,-12.88c4.17,-1 8.58,-1.01 12.81,-1.82c8.74,-1.67 13.28,-6.93 13.23,-14.94c-0.04,-7.89 -4.69,-13.11 -13.4,-14.8c-2.93,-0.57 -5.93,-0.83 -8.91,-1.04c-6.36,-0.46 -10.51,-3.62 -10.68,-8.31c-0.19,-4.95 4.76,-10.99 10.29,-11.05c4.87,-0.06 9.92,1.01 14.61,2.49c11.25,3.56 21.15,9.13 25.85,20.91c4.46,11.19 2.34,28.05 -10.21,37.04z" fill="#1C9BD3" id="svg_6" opacity="1" transform="matrix(1 0 0 1 0 0)"/>
		<path d="m1477.12,248.11c-9.64,10.24 -21.41,13.84 -34.71,12.38c-3,-0.33 -6.73,-1.97 -8.48,-4.26c-4.32,-5.66 -0.51,-12.34 6.71,-13.24c5.4,-0.67 10.88,-1.4 16.06,-2.99c6.42,-1.98 8.67,-7.31 8.66,-13.71c0,-6.35 -2.82,-11.19 -8.85,-13.1c-5.17,-1.64 -10.68,-2.31 -16.08,-3.12c-5.36,-0.8 -7.94,-3.06 -8.09,-7.69c-0.16,-4.98 2.76,-8.55 7.71,-9.41c16.71,-2.92 33.23,4.17 40.99,17.6c6.74,11.67 5.23,27 -3.92,37.54z" fill="#1B9BD3" id="svg_7" opacity="1"/>
		<path d="m1122.37,292.09c-3.28,4.07 -7.18,5.6 -11.75,3.86c-4.67,-1.77 -6.92,-5.54 -6.92,-10.53c-0.02,-27.3 -0.1,-54.59 0.05,-81.89c0.04,-6.93 4.3,-11.09 10.31,-11.04c6.3,0.05 9.98,3.95 10,11.17c0.07,27.13 0.06,54.26 -0.04,81.38c-0.01,2.25 -0.94,4.49 -1.65,7.05z" fill="#1A9AD3" id="svg_8" opacity="1" transform="matrix(1 0 0 1 0 0)"/>
		<path d="m570.42,291.32c-0.49,-2.48 -1.06,-4.61 -1.07,-6.74c-0.13,-26.81 -0.21,-53.62 -0.24,-80.43c-0.01,-7.04 3.32,-11.26 8.94,-11.66c6.71,-0.49 10.8,3.61 10.86,11.17c0.17,18.98 0.25,37.96 0.35,56.94c0.04,8.5 0.14,16.99 0.01,25.48c-0.08,4.92 -2.24,8.85 -7.2,10.26c-4.83,1.37 -8.86,-0.14 -11.65,-5.02z" fill="#1D9BD3" id="svg_9" opacity="1" transform="matrix(1 0 0 1 0 0)"/>
		<path d="m964.05,192.12c26.48,0 52.48,-0.08 78.47,0.11c2.97,0.02 6.44,0.81 8.77,2.49c3.12,2.25 4.02,6.12 2.46,9.95c-1.56,3.82 -4.28,6.25 -8.72,6.27c-12.17,0.05 -24.33,0.21 -36.49,0.27c-15.83,0.07 -31.66,0.09 -47.48,0.13c-1.5,0 -3.02,0.04 -4.49,-0.15c-5.52,-0.73 -9.21,-4.6 -9.18,-9.5c0.03,-5.14 3.95,-9.07 9.67,-9.51c2.16,-0.17 4.33,-0.05 6.99,-0.06z" fill="#1C9BD3" id="svg_10" opacity="1" transform="matrix(1 0 0 1 0 0)"/>
		<path d="m1249.6,203.59c0.22,-1.75 0.27,-3.11 0.67,-4.37c1.44,-4.55 4.78,-6.78 9.42,-6.69c4.71,0.09 7.82,2.66 8.92,7.28c0.41,1.75 0.4,3.63 0.4,5.46c-0.04,26.32 -0.07,52.64 -0.23,78.96c-0.02,2.75 0,6.42 -1.63,8.01c-2.33,2.28 -6.07,3.95 -9.35,4.22c-3.89,0.32 -6.79,-2.55 -7.71,-6.56c-0.52,-2.24 -0.71,-4.6 -0.71,-6.91c0.03,-26.32 0.13,-52.64 0.22,-79.4z" fill="#1B9BD3" id="svg_11" opacity="1" transform="matrix(1 0 0 1 0 0)"/>
		<path d="m427.8,244c0,-12.98 -0.03,-25.45 0.02,-37.93c0,-2.15 0.03,-4.36 0.51,-6.44c1.07,-4.68 4.37,-6.94 9.02,-7.12c4.31,-0.17 8.42,3.27 9.22,7.63c0.3,1.62 0.24,3.31 0.24,4.97c-0.04,26.28 -0.09,52.56 -0.17,78.84c0,1.66 -0.02,3.35 -0.32,4.96c-0.97,5.15 -4.93,8.23 -9.89,7.85c-4.77,-0.36 -8.23,-3.69 -8.39,-8.85c-0.27,-9.14 -0.19,-18.29 -0.24,-27.44c-0.03,-5.32 -0.01,-10.65 0,-16.47z" fill="#1D9BD4" id="svg_12" opacity="1"/>
		<path d="m734.55,254c0,10.82 0.04,21.15 -0.02,31.47c-0.04,6.92 -3.6,11.1 -9.35,11.2c-6.02,0.09 -9.63,-4.08 -9.64,-11.37c-0.03,-27.14 -0.03,-54.28 0,-81.42c0,-7.34 3.51,-11.45 9.56,-11.4c6.02,0.05 9.42,4.16 9.44,11.56c0.03,16.49 0.01,32.97 0.01,49.96z" fill="#1799D2" id="svg_13" opacity="1" transform="matrix(1 0 0 1 0 0)"/>
		<path d="m1414.98,274.99c0,3.49 0.02,6.49 -0.01,9.48c-0.09,7.58 -3.24,11.44 -9.41,11.55c-6.46,0.12 -9.91,-3.66 -9.96,-11.53c-0.09,-13.64 0.04,-27.28 0.1,-40.92c0.07,-13.47 0.12,-26.94 0.28,-40.41c0.07,-6.47 3.37,-10.17 8.93,-10.44c6.08,-0.28 9.93,3.54 10.02,10.41c0.14,10.32 0.04,20.63 0.05,30.94c0,13.48 0,26.95 0,40.92z" fill="#1A9AD3" id="svg_14" opacity="1" transform="matrix(1 0 0 1 0 0)"/>
		<path d="m1008.06,230.93c1.06,3.1 2.51,5.92 2.54,8.74c0.15,15.49 0,30.98 -0.13,46.47c-0.06,6.52 -3.7,10.45 -9.45,10.5c-5.74,0.04 -9.64,-3.9 -9.68,-10.4c-0.08,-15.66 0.11,-31.32 0.09,-46.97c0,-4.11 0.94,-7.71 4.74,-9.76c4.03,-2.18 8.01,-1.82 11.89,1.42z" fill="#1C9BD3" id="svg_15" opacity="1"/>
		<path d="m898.2,227.92c-0.13,3.81 0.02,7.17 -0.47,10.44c-0.75,4.96 -4.85,8.24 -9.74,8.33c-4.96,0.09 -9.48,-3.05 -9.67,-8.18c-0.47,-12.46 -0.51,-24.95 -0.08,-37.4c0.19,-5.51 4.51,-8.51 9.92,-8.43c5.33,0.07 9.3,3.16 9.65,8.8c0.54,8.63 0.3,17.3 0.39,26.44z" fill="#1C9BD3" id="svg_16" opacity="1" transform="matrix(1 0 0 1 0 0)"/>
		<path d="m1150.73,211.32c-7.02,-1.35 -9.94,-4.61 -9.62,-10.29c0.32,-5.51 4.03,-8.78 10.58,-8.88c11.48,-0.18 22.97,-0.21 34.45,-0.19c6.52,0.01 10.68,3.63 10.86,9.16c0.21,6.25 -3.73,10.11 -10.9,10.2c-11.65,0.13 -23.3,0.03 -35.37,0z" fill="#1C9BD3" id="svg_17" opacity="1"/>
		<path d="m1155.13,278.03c10.79,0 21.1,-0.03 31.42,0.01c7.02,0.03 10.83,3.45 10.81,9.52c-0.02,6.02 -3.85,9.56 -10.82,9.63c-10.65,0.11 -21.29,0.04 -31.94,0.03c-8.6,-0.01 -12.89,-3.26 -12.89,-9.7c0,-6.46 4.08,-9.46 13.42,-9.49z" fill="#1C9BD3" id="svg_18" opacity="1"/>
		<path d="m806.41,293.34c-3.48,3.25 -7.08,4.24 -11.22,2.28c-4.2,-1.98 -5.39,-5.71 -5.37,-9.9c0.05,-11.47 0.16,-22.94 0.43,-34.4c0.13,-5.62 3.8,-9.12 9.08,-9.18c5.19,-0.06 9.3,3.49 9.37,8.95c0.18,12.13 0.04,24.27 -0.18,36.4c-0.04,1.86 -1.22,3.71 -2.11,5.85z" fill="#1F9CD4" id="svg_19" opacity="1"/>
		<path d="m1182,241.13c1.34,8.71 -1.91,12.93 -10.04,13.14c-6.64,0.17 -13.28,0.16 -19.92,0c-6.6,-0.16 -10.75,-4.21 -10.6,-9.99c0.15,-5.67 4.08,-9.35 10.63,-9.51c6.8,-0.18 13.61,-0.13 20.41,0c4.26,0.08 7.79,1.62 9.52,6.36z" fill="#1C9BD3" id="svg_20" opacity="1"/>
	</g>
</svg>